<?xml version="1.0" encoding="UTF-8" standalone="no"?>
<!DOCTYPE svg PUBLIC "-//W3C//DTD SVG 1.1//EN"
 "http://www.w3.org/Graphics/SVG/1.1/DTD/svg11.dtd">
<!-- Generated by graphviz version 14.0.2 (20251019.1705)
 -->
<!-- Title: LR1_Automaton Pages: 1 -->
<svg width="10912pt" height="3463pt"
 viewBox="0.00 0.00 10912.00 3463.00" xmlns="http://www.w3.org/2000/svg" xmlns:xlink="http://www.w3.org/1999/xlink">
<g id="graph0" class="graph" transform="scale(4.16667 4.16667) rotate(0) translate(4 827.23)">
<title>LR1_Automaton</title>
<polygon fill="white" stroke="none" points="-4,4 -4,-827.23 2614.97,-827.23 2614.97,4 -4,4"/>
<text xml:space="preserve" text-anchor="middle" x="1305.49" y="-8.25" font-family="Arial Bold" font-size="20.00">Autómata LR(1)</text>
<!-- start -->
<g id="node1" class="node">
<title>start</title>
<ellipse fill="black" stroke="black" cx="0.36" cy="-533.25" rx="0.36" ry="0.36"/>
</g>
<!-- 0 -->
<g id="node3" class="node">
<title>0</title>
<path fill="lightgreen" stroke="black" d="M349.72,-605.25C349.72,-605.25 49.72,-605.25 49.72,-605.25 43.72,-605.25 37.72,-599.25 37.72,-593.25 37.72,-593.25 37.72,-473.25 37.72,-473.25 37.72,-467.25 43.72,-461.25 49.72,-461.25 49.72,-461.25 349.72,-461.25 349.72,-461.25 355.72,-461.25 361.72,-467.25 361.72,-473.25 361.72,-473.25 361.72,-593.25 361.72,-593.25 361.72,-599.25 355.72,-605.25 349.72,-605.25"/>
<text xml:space="preserve" text-anchor="start" x="191.47" y="-555.95" font-family="Courier,monospace" font-weight="bold" font-size="14.00">I0</text>
<text xml:space="preserve" text-anchor="start" x="154.35" y="-527.95" font-family="Courier,monospace" font-size="14.00">S&#39; → • S, $</text>
<text xml:space="preserve" text-anchor="start" x="141.97" y="-513.95" font-family="Courier,monospace" font-size="14.00">S → • ( L ), $</text>
<text xml:space="preserve" text-anchor="start" x="158.47" y="-499.95" font-family="Courier,monospace" font-size="14.00">S → • a, $</text>
</g>
<!-- start&#45;&gt;0 -->
<g id="edge1" class="edge">
<title>start&#45;&gt;0</title>
<path fill="none" stroke="#008b00" stroke-width="2" d="M0.86,-533.25C2.14,-533.25 11.77,-533.25 26.17,-533.25"/>
<polygon fill="#008b00" stroke="#008b00" stroke-width="2" points="24.42,-536.75 34.42,-533.25 24.42,-529.75 24.42,-536.75"/>
</g>
<!-- accept -->
<g id="node2" class="node">
<title>accept</title>
<ellipse fill="lightcoral" stroke="black" cx="951.97" cy="-754.25" rx="64.98" ry="64.98"/>
<ellipse fill="none" stroke="black" cx="951.97" cy="-754.25" rx="68.98" ry="68.98"/>
<text xml:space="preserve" text-anchor="start" x="920.47" y="-748.65" font-family="Courier,monospace" font-weight="bold" font-size="18.00">ACCEPT</text>
</g>
<!-- 1 -->
<g id="node4" class="node">
<title>1</title>
<path fill="lightcoral" stroke="black" d="M726.22,-807.25C726.22,-807.25 426.22,-807.25 426.22,-807.25 420.22,-807.25 414.22,-801.25 414.22,-795.25 414.22,-795.25 414.22,-675.25 414.22,-675.25 414.22,-669.25 420.22,-663.25 426.22,-663.25 426.22,-663.25 726.22,-663.25 726.22,-663.25 732.22,-663.25 738.22,-669.25 738.22,-675.25 738.22,-675.25 738.22,-795.25 738.22,-795.25 738.22,-801.25 732.22,-807.25 726.22,-807.25"/>
<text xml:space="preserve" text-anchor="start" x="567.97" y="-743.95" font-family="Courier,monospace" font-weight="bold" font-size="14.00">I1</text>
<text xml:space="preserve" text-anchor="start" x="530.85" y="-715.95" font-family="Courier,monospace" font-size="14.00">S&#39; → S •, $</text>
</g>
<!-- 0&#45;&gt;1 -->
<g id="edge3" class="edge">
<title>0&#45;&gt;1</title>
<path fill="none" stroke="black" d="M335.13,-605.75C366.31,-622.57 399.62,-640.53 431.19,-657.56"/>
<polygon fill="black" stroke="black" points="429.14,-660.43 439.6,-662.1 432.46,-654.27 429.14,-660.43"/>
<text xml:space="preserve" text-anchor="middle" x="387.97" y="-636.7" font-family="Arial Bold" font-size="14.00" fill="blue"> S </text>
</g>
<!-- 2 -->
<g id="node5" class="node">
<title>2</title>
<path fill="lightblue" stroke="black" d="M726.22,-605.25C726.22,-605.25 426.22,-605.25 426.22,-605.25 420.22,-605.25 414.22,-599.25 414.22,-593.25 414.22,-593.25 414.22,-473.25 414.22,-473.25 414.22,-467.25 420.22,-461.25 426.22,-461.25 426.22,-461.25 726.22,-461.25 726.22,-461.25 732.22,-461.25 738.22,-467.25 738.22,-473.25 738.22,-473.25 738.22,-593.25 738.22,-593.25 738.22,-599.25 732.22,-605.25 726.22,-605.25"/>
<text xml:space="preserve" text-anchor="start" x="567.97" y="-541.95" font-family="Courier,monospace" font-weight="bold" font-size="14.00">I2</text>
<text xml:space="preserve" text-anchor="start" x="534.97" y="-513.95" font-family="Courier,monospace" font-size="14.00">S → a •, $</text>
</g>
<!-- 0&#45;&gt;2 -->
<g id="edge4" class="edge">
<title>0&#45;&gt;2</title>
<path fill="none" stroke="black" d="M361.99,-533.25C375.45,-533.25 389.1,-533.25 402.64,-533.25"/>
<polygon fill="black" stroke="black" points="402.48,-536.75 412.48,-533.25 402.48,-529.75 402.48,-536.75"/>
<text xml:space="preserve" text-anchor="middle" x="387.97" y="-535.7" font-family="Arial Bold" font-size="14.00" fill="blue"> a </text>
</g>
<!-- 3 -->
<g id="node6" class="node">
<title>3</title>
<path fill="lightblue" stroke="black" d="M726.22,-362.65C726.22,-362.65 426.22,-362.65 426.22,-362.65 420.22,-362.65 414.22,-356.65 414.22,-350.65 414.22,-350.65 414.22,-191.85 414.22,-191.85 414.22,-185.85 420.22,-179.85 426.22,-179.85 426.22,-179.85 726.22,-179.85 726.22,-179.85 732.22,-179.85 738.22,-185.85 738.22,-191.85 738.22,-191.85 738.22,-350.65 738.22,-350.65 738.22,-356.65 732.22,-362.65 726.22,-362.65"/>
<text xml:space="preserve" text-anchor="start" x="567.97" y="-335.95" font-family="Courier,monospace" font-weight="bold" font-size="14.00">I3</text>
<text xml:space="preserve" text-anchor="start" x="518.47" y="-307.95" font-family="Courier,monospace" font-size="14.00">S → • ( L ), )</text>
<text xml:space="preserve" text-anchor="start" x="518.47" y="-293.95" font-family="Courier,monospace" font-size="14.00">S → • ( L ), ,</text>
<text xml:space="preserve" text-anchor="start" x="518.47" y="-279.95" font-family="Courier,monospace" font-size="14.00">S → ( • L ), $</text>
<text xml:space="preserve" text-anchor="start" x="534.97" y="-265.95" font-family="Courier,monospace" font-size="14.00">S → • a, )</text>
<text xml:space="preserve" text-anchor="start" x="534.97" y="-251.95" font-family="Courier,monospace" font-size="14.00">S → • a, ,</text>
<text xml:space="preserve" text-anchor="start" x="518.47" y="-237.95" font-family="Courier,monospace" font-size="14.00">L → • L , S, )</text>
<text xml:space="preserve" text-anchor="start" x="518.47" y="-223.95" font-family="Courier,monospace" font-size="14.00">L → • L , S, ,</text>
<text xml:space="preserve" text-anchor="start" x="534.97" y="-209.95" font-family="Courier,monospace" font-size="14.00">L → • S, )</text>
<text xml:space="preserve" text-anchor="start" x="534.97" y="-195.95" font-family="Courier,monospace" font-size="14.00">L → • S, ,</text>
</g>
<!-- 0&#45;&gt;3 -->
<g id="edge2" class="edge">
<title>0&#45;&gt;3</title>
<path fill="none" stroke="black" d="M304.05,-460.96C344.47,-432.68 391.48,-399.8 434.89,-369.43"/>
<polygon fill="black" stroke="black" points="436.66,-372.46 442.85,-363.86 432.65,-366.72 436.66,-372.46"/>
<text xml:space="preserve" text-anchor="middle" x="387.97" y="-404.7" font-family="Arial Bold" font-size="14.00" fill="blue"> ( </text>
</g>
<!-- 1&#45;&gt;accept -->
<g id="edge20" class="edge">
<title>1&#45;&gt;accept</title>
<path fill="none" stroke="red" stroke-width="2" d="M738.71,-743.46C784.71,-745.8 832.8,-748.24 871.55,-750.21"/>
<polygon fill="red" stroke="red" stroke-width="2" points="869.56,-753.62 879.72,-750.63 869.91,-746.62 869.56,-753.62"/>
<text xml:space="preserve" text-anchor="middle" x="764.1" y="-748.3" font-family="Arial Bold" font-size="16.00" fill="red">$</text>
</g>
<!-- 4 -->
<g id="node7" class="node">
<title>4</title>
<path fill="lightblue" stroke="black" d="M1101.97,-343.25C1101.97,-343.25 801.97,-343.25 801.97,-343.25 795.97,-343.25 789.97,-337.25 789.97,-331.25 789.97,-331.25 789.97,-211.25 789.97,-211.25 789.97,-205.25 795.97,-199.25 801.97,-199.25 801.97,-199.25 1101.97,-199.25 1101.97,-199.25 1107.97,-199.25 1113.97,-205.25 1113.97,-211.25 1113.97,-211.25 1113.97,-331.25 1113.97,-331.25 1113.97,-337.25 1107.97,-343.25 1101.97,-343.25"/>
<text xml:space="preserve" text-anchor="start" x="943.72" y="-293.95" font-family="Courier,monospace" font-weight="bold" font-size="14.00">I4</text>
<text xml:space="preserve" text-anchor="start" x="894.22" y="-265.95" font-family="Courier,monospace" font-size="14.00">S → ( L • ), $</text>
<text xml:space="preserve" text-anchor="start" x="894.22" y="-251.95" font-family="Courier,monospace" font-size="14.00">L → L • , S, )</text>
<text xml:space="preserve" text-anchor="start" x="894.22" y="-237.95" font-family="Courier,monospace" font-size="14.00">L → L • , S, ,</text>
</g>
<!-- 3&#45;&gt;4 -->
<g id="edge6" class="edge">
<title>3&#45;&gt;4</title>
<path fill="none" stroke="black" d="M738.71,-271.25C751.76,-271.25 764.99,-271.25 778.12,-271.25"/>
<polygon fill="black" stroke="black" points="778.11,-274.75 788.11,-271.25 778.11,-267.75 778.11,-274.75"/>
<text xml:space="preserve" text-anchor="middle" x="764.1" y="-273.7" font-family="Arial Bold" font-size="14.00" fill="blue"> L </text>
</g>
<!-- 5 -->
<g id="node8" class="node">
<title>5</title>
<path fill="lightblue" stroke="black" d="M2226.97,-673.25C2226.97,-673.25 1926.97,-673.25 1926.97,-673.25 1920.97,-673.25 1914.97,-667.25 1914.97,-661.25 1914.97,-661.25 1914.97,-541.25 1914.97,-541.25 1914.97,-535.25 1920.97,-529.25 1926.97,-529.25 1926.97,-529.25 2226.97,-529.25 2226.97,-529.25 2232.97,-529.25 2238.97,-535.25 2238.97,-541.25 2238.97,-541.25 2238.97,-661.25 2238.97,-661.25 2238.97,-667.25 2232.97,-673.25 2226.97,-673.25"/>
<text xml:space="preserve" text-anchor="start" x="2068.72" y="-616.95" font-family="Courier,monospace" font-weight="bold" font-size="14.00">I5</text>
<text xml:space="preserve" text-anchor="start" x="2035.72" y="-588.95" font-family="Courier,monospace" font-size="14.00">L → S •, )</text>
<text xml:space="preserve" text-anchor="start" x="2035.72" y="-574.95" font-family="Courier,monospace" font-size="14.00">L → S •, ,</text>
</g>
<!-- 3&#45;&gt;5 -->
<g id="edge7" class="edge">
<title>3&#45;&gt;5</title>
<path fill="none" stroke="black" d="M659.67,-362.73C763.4,-476.87 930.56,-657.25 950.97,-657.25 950.97,-657.25 950.97,-657.25 1701.47,-657.25 1767.83,-657.25 1840.08,-648.54 1903.26,-638"/>
<polygon fill="black" stroke="black" points="1903.78,-641.46 1913.05,-636.33 1902.6,-634.56 1903.78,-641.46"/>
<text xml:space="preserve" text-anchor="middle" x="1323.97" y="-659.7" font-family="Arial Bold" font-size="14.00" fill="blue"> S </text>
</g>
<!-- 6 -->
<g id="node9" class="node">
<title>6</title>
<path fill="lightblue" stroke="black" d="M1850.47,-381.65C1850.47,-381.65 1550.47,-381.65 1550.47,-381.65 1544.47,-381.65 1538.47,-375.65 1538.47,-369.65 1538.47,-369.65 1538.47,-196.85 1538.47,-196.85 1538.47,-190.85 1544.47,-184.85 1550.47,-184.85 1550.47,-184.85 1850.47,-184.85 1850.47,-184.85 1856.47,-184.85 1862.47,-190.85 1862.47,-196.85 1862.47,-196.85 1862.47,-369.65 1862.47,-369.65 1862.47,-375.65 1856.47,-381.65 1850.47,-381.65"/>
<text xml:space="preserve" text-anchor="start" x="1692.22" y="-354.95" font-family="Courier,monospace" font-weight="bold" font-size="14.00">I6</text>
<text xml:space="preserve" text-anchor="start" x="1642.72" y="-326.95" font-family="Courier,monospace" font-size="14.00">S → • ( L ), )</text>
<text xml:space="preserve" text-anchor="start" x="1642.72" y="-312.95" font-family="Courier,monospace" font-size="14.00">S → • ( L ), ,</text>
<text xml:space="preserve" text-anchor="start" x="1642.72" y="-298.95" font-family="Courier,monospace" font-size="14.00">S → ( • L ), )</text>
<text xml:space="preserve" text-anchor="start" x="1642.72" y="-284.95" font-family="Courier,monospace" font-size="14.00">S → ( • L ), ,</text>
<text xml:space="preserve" text-anchor="start" x="1659.22" y="-270.95" font-family="Courier,monospace" font-size="14.00">S → • a, )</text>
<text xml:space="preserve" text-anchor="start" x="1659.22" y="-256.95" font-family="Courier,monospace" font-size="14.00">S → • a, ,</text>
<text xml:space="preserve" text-anchor="start" x="1642.72" y="-242.95" font-family="Courier,monospace" font-size="14.00">L → • L , S, )</text>
<text xml:space="preserve" text-anchor="start" x="1642.72" y="-228.95" font-family="Courier,monospace" font-size="14.00">L → • L , S, ,</text>
<text xml:space="preserve" text-anchor="start" x="1659.22" y="-214.95" font-family="Courier,monospace" font-size="14.00">L → • S, )</text>
<text xml:space="preserve" text-anchor="start" x="1659.22" y="-200.95" font-family="Courier,monospace" font-size="14.00">L → • S, ,</text>
</g>
<!-- 3&#45;&gt;6 -->
<g id="edge5" class="edge">
<title>3&#45;&gt;6</title>
<path fill="none" stroke="black" d="M738.55,-203.83C755.69,-198.48 773.04,-193.79 789.97,-190.25 1092.86,-126.94 1185.38,-98.78 1485.97,-172.25 1499.88,-175.65 1513.88,-180.13 1527.72,-185.33"/>
<polygon fill="black" stroke="black" points="1526.26,-188.52 1536.85,-188.9 1528.81,-182 1526.26,-188.52"/>
<text xml:space="preserve" text-anchor="middle" x="1137.97" y="-132.68" font-family="Arial Bold" font-size="14.00" fill="blue"> ( </text>
</g>
<!-- 7 -->
<g id="node10" class="node">
<title>7</title>
<path fill="lightblue" stroke="black" d="M2226.97,-223.25C2226.97,-223.25 1926.97,-223.25 1926.97,-223.25 1920.97,-223.25 1914.97,-217.25 1914.97,-211.25 1914.97,-211.25 1914.97,-91.25 1914.97,-91.25 1914.97,-85.25 1920.97,-79.25 1926.97,-79.25 1926.97,-79.25 2226.97,-79.25 2226.97,-79.25 2232.97,-79.25 2238.97,-85.25 2238.97,-91.25 2238.97,-91.25 2238.97,-211.25 2238.97,-211.25 2238.97,-217.25 2232.97,-223.25 2226.97,-223.25"/>
<text xml:space="preserve" text-anchor="start" x="2068.72" y="-166.95" font-family="Courier,monospace" font-weight="bold" font-size="14.00">I7</text>
<text xml:space="preserve" text-anchor="start" x="2035.72" y="-138.95" font-family="Courier,monospace" font-size="14.00">S → a •, )</text>
<text xml:space="preserve" text-anchor="start" x="2035.72" y="-124.95" font-family="Courier,monospace" font-size="14.00">S → a •, ,</text>
</g>
<!-- 3&#45;&gt;7 -->
<g id="edge8" class="edge">
<title>3&#45;&gt;7</title>
<path fill="none" stroke="black" d="M693.5,-179.52C723.5,-159.77 756.74,-141.02 789.97,-128.25 857.44,-102.32 878.69,-105.25 950.97,-105.25 950.97,-105.25 950.97,-105.25 1701.47,-105.25 1767.75,-105.25 1840.13,-112.44 1903.44,-121.13"/>
<polygon fill="black" stroke="black" points="1902.86,-124.58 1913.25,-122.5 1903.83,-117.65 1902.86,-124.58"/>
<text xml:space="preserve" text-anchor="middle" x="1323.97" y="-107.7" font-family="Arial Bold" font-size="14.00" fill="blue"> a </text>
</g>
<!-- 8 -->
<g id="node11" class="node">
<title>8</title>
<path fill="lightblue" stroke="black" d="M1473.97,-487.25C1473.97,-487.25 1173.97,-487.25 1173.97,-487.25 1167.97,-487.25 1161.97,-481.25 1161.97,-475.25 1161.97,-475.25 1161.97,-355.25 1161.97,-355.25 1161.97,-349.25 1167.97,-343.25 1173.97,-343.25 1173.97,-343.25 1473.97,-343.25 1473.97,-343.25 1479.97,-343.25 1485.97,-349.25 1485.97,-355.25 1485.97,-355.25 1485.97,-475.25 1485.97,-475.25 1485.97,-481.25 1479.97,-487.25 1473.97,-487.25"/>
<text xml:space="preserve" text-anchor="start" x="1315.72" y="-458.95" font-family="Courier,monospace" font-weight="bold" font-size="14.00">I8</text>
<text xml:space="preserve" text-anchor="start" x="1266.22" y="-430.95" font-family="Courier,monospace" font-size="14.00">S → • ( L ), )</text>
<text xml:space="preserve" text-anchor="start" x="1266.22" y="-416.95" font-family="Courier,monospace" font-size="14.00">S → • ( L ), ,</text>
<text xml:space="preserve" text-anchor="start" x="1282.72" y="-402.95" font-family="Courier,monospace" font-size="14.00">S → • a, )</text>
<text xml:space="preserve" text-anchor="start" x="1282.72" y="-388.95" font-family="Courier,monospace" font-size="14.00">S → • a, ,</text>
<text xml:space="preserve" text-anchor="start" x="1266.22" y="-374.95" font-family="Courier,monospace" font-size="14.00">L → L , • S, )</text>
<text xml:space="preserve" text-anchor="start" x="1266.22" y="-360.95" font-family="Courier,monospace" font-size="14.00">L → L , • S, ,</text>
</g>
<!-- 4&#45;&gt;8 -->
<g id="edge10" class="edge">
<title>4&#45;&gt;8</title>
<path fill="none" stroke="black" d="M1114.45,-334.1C1126.57,-338.81 1138.82,-343.58 1151,-348.32"/>
<polygon fill="black" stroke="black" points="1149.67,-351.56 1160.26,-351.93 1152.21,-345.04 1149.67,-351.56"/>
<text xml:space="preserve" text-anchor="middle" x="1137.97" y="-345.7" font-family="Arial Bold" font-size="14.00" fill="blue"> , </text>
</g>
<!-- 9 -->
<g id="node12" class="node">
<title>9</title>
<path fill="lightblue" stroke="black" d="M1473.97,-325.25C1473.97,-325.25 1173.97,-325.25 1173.97,-325.25 1167.97,-325.25 1161.97,-319.25 1161.97,-313.25 1161.97,-313.25 1161.97,-193.25 1161.97,-193.25 1161.97,-187.25 1167.97,-181.25 1173.97,-181.25 1173.97,-181.25 1473.97,-181.25 1473.97,-181.25 1479.97,-181.25 1485.97,-187.25 1485.97,-193.25 1485.97,-193.25 1485.97,-313.25 1485.97,-313.25 1485.97,-319.25 1479.97,-325.25 1473.97,-325.25"/>
<text xml:space="preserve" text-anchor="start" x="1315.72" y="-261.95" font-family="Courier,monospace" font-weight="bold" font-size="14.00">I9</text>
<text xml:space="preserve" text-anchor="start" x="1266.22" y="-233.95" font-family="Courier,monospace" font-size="14.00">S → ( L ) •, $</text>
</g>
<!-- 4&#45;&gt;9 -->
<g id="edge9" class="edge">
<title>4&#45;&gt;9</title>
<path fill="none" stroke="black" d="M1114.45,-263.39C1126.32,-262.82 1138.32,-262.23 1150.26,-261.65"/>
<polygon fill="black" stroke="black" points="1150.34,-265.15 1160.16,-261.17 1150,-258.16 1150.34,-265.15"/>
<text xml:space="preserve" text-anchor="middle" x="1137.97" y="-264.7" font-family="Arial Bold" font-size="14.00" fill="blue"> ) </text>
</g>
<!-- 6&#45;&gt;5 -->
<g id="edge13" class="edge">
<title>6&#45;&gt;5</title>
<path fill="none" stroke="black" d="M1817.91,-382.12C1870.79,-427.02 1932.5,-479.42 1982.31,-521.72"/>
<polygon fill="black" stroke="black" points="1979.79,-524.17 1989.68,-527.98 1984.32,-518.84 1979.79,-524.17"/>
<text xml:space="preserve" text-anchor="middle" x="1888.72" y="-444.7" font-family="Arial Bold" font-size="14.00" fill="blue"> S </text>
</g>
<!-- 6&#45;&gt;6 -->
<g id="edge11" class="edge">
<title>6&#45;&gt;6</title>
<path fill="none" stroke="black" d="M1670.78,-381.76C1676.42,-392.63 1686.31,-399.65 1700.47,-399.65 1710.2,-399.65 1717.92,-396.33 1723.63,-390.72"/>
<polygon fill="black" stroke="black" points="1726.21,-393.12 1729.27,-382.98 1720.55,-389 1726.21,-393.12"/>
<text xml:space="preserve" text-anchor="middle" x="1700.47" y="-402.1" font-family="Arial Bold" font-size="14.00" fill="blue"> ( </text>
</g>
<!-- 6&#45;&gt;7 -->
<g id="edge14" class="edge">
<title>6&#45;&gt;7</title>
<path fill="none" stroke="black" d="M1862.74,-226.41C1876.47,-221.57 1890.4,-216.66 1904.21,-211.79"/>
<polygon fill="black" stroke="black" points="1905.05,-215.21 1913.31,-208.58 1902.72,-208.6 1905.05,-215.21"/>
<text xml:space="preserve" text-anchor="middle" x="1888.72" y="-219.7" font-family="Arial Bold" font-size="14.00" fill="blue"> a </text>
</g>
<!-- 10 -->
<g id="node13" class="node">
<title>10</title>
<path fill="lightblue" stroke="black" d="M2226.97,-454.25C2226.97,-454.25 1926.97,-454.25 1926.97,-454.25 1920.97,-454.25 1914.97,-448.25 1914.97,-442.25 1914.97,-442.25 1914.97,-322.25 1914.97,-322.25 1914.97,-316.25 1920.97,-310.25 1926.97,-310.25 1926.97,-310.25 2226.97,-310.25 2226.97,-310.25 2232.97,-310.25 2238.97,-316.25 2238.97,-322.25 2238.97,-322.25 2238.97,-442.25 2238.97,-442.25 2238.97,-448.25 2232.97,-454.25 2226.97,-454.25"/>
<text xml:space="preserve" text-anchor="start" x="2064.6" y="-411.95" font-family="Courier,monospace" font-weight="bold" font-size="14.00">I10</text>
<text xml:space="preserve" text-anchor="start" x="2019.22" y="-383.95" font-family="Courier,monospace" font-size="14.00">S → ( L • ), )</text>
<text xml:space="preserve" text-anchor="start" x="2019.22" y="-369.95" font-family="Courier,monospace" font-size="14.00">S → ( L • ), ,</text>
<text xml:space="preserve" text-anchor="start" x="2019.22" y="-355.95" font-family="Courier,monospace" font-size="14.00">L → L • , S, )</text>
<text xml:space="preserve" text-anchor="start" x="2019.22" y="-341.95" font-family="Courier,monospace" font-size="14.00">L → L • , S, ,</text>
</g>
<!-- 6&#45;&gt;10 -->
<g id="edge12" class="edge">
<title>6&#45;&gt;10</title>
<path fill="none" stroke="black" d="M1862.88,-324.54C1874.42,-327.56 1885.88,-330.56 1896.97,-333.5 1899.13,-334.07 1901.3,-334.65 1903.49,-335.23"/>
<polygon fill="black" stroke="black" points="1902.49,-338.58 1913.05,-337.77 1904.29,-331.82 1902.49,-338.58"/>
<text xml:space="preserve" text-anchor="middle" x="1888.72" y="-335.95" font-family="Arial Bold" font-size="14.00" fill="blue"> L </text>
</g>
<!-- 8&#45;&gt;6 -->
<g id="edge15" class="edge">
<title>8&#45;&gt;6</title>
<path fill="none" stroke="black" d="M1486.24,-358.41C1499.97,-353.57 1513.9,-348.66 1527.71,-343.79"/>
<polygon fill="black" stroke="black" points="1528.55,-347.21 1536.81,-340.58 1526.22,-340.6 1528.55,-347.21"/>
<text xml:space="preserve" text-anchor="middle" x="1512.22" y="-351.7" font-family="Arial Bold" font-size="14.00" fill="blue"> ( </text>
</g>
<!-- 8&#45;&gt;7 -->
<g id="edge17" class="edge">
<title>8&#45;&gt;7</title>
<path fill="none" stroke="black" d="M1478.02,-342.94C1480.8,-340.14 1483.45,-337.24 1485.97,-334.25 1537.88,-272.5 1474.12,-209.15 1538.47,-160.5 1594.14,-118.42 1768.19,-122.34 1903.32,-132.89"/>
<polygon fill="black" stroke="black" points="1902.86,-136.36 1913.11,-133.67 1903.42,-129.38 1902.86,-136.36"/>
<text xml:space="preserve" text-anchor="middle" x="1700.47" y="-162.95" font-family="Arial Bold" font-size="14.00" fill="blue"> a </text>
</g>
<!-- 11 -->
<g id="node14" class="node">
<title>11</title>
<path fill="lightblue" stroke="black" d="M1850.47,-629.25C1850.47,-629.25 1550.47,-629.25 1550.47,-629.25 1544.47,-629.25 1538.47,-623.25 1538.47,-617.25 1538.47,-617.25 1538.47,-497.25 1538.47,-497.25 1538.47,-491.25 1544.47,-485.25 1550.47,-485.25 1550.47,-485.25 1850.47,-485.25 1850.47,-485.25 1856.47,-485.25 1862.47,-491.25 1862.47,-497.25 1862.47,-497.25 1862.47,-617.25 1862.47,-617.25 1862.47,-623.25 1856.47,-629.25 1850.47,-629.25"/>
<text xml:space="preserve" text-anchor="start" x="1688.1" y="-572.95" font-family="Courier,monospace" font-weight="bold" font-size="14.00">I11</text>
<text xml:space="preserve" text-anchor="start" x="1642.72" y="-544.95" font-family="Courier,monospace" font-size="14.00">L → L , S •, )</text>
<text xml:space="preserve" text-anchor="start" x="1642.72" y="-530.95" font-family="Courier,monospace" font-size="14.00">L → L , S •, ,</text>
</g>
<!-- 8&#45;&gt;11 -->
<g id="edge16" class="edge">
<title>8&#45;&gt;11</title>
<path fill="none" stroke="black" d="M1486.24,-476.4C1499.97,-481.61 1513.9,-486.89 1527.71,-492.12"/>
<polygon fill="black" stroke="black" points="1526.24,-495.31 1536.83,-495.58 1528.72,-488.76 1526.24,-495.31"/>
<text xml:space="preserve" text-anchor="middle" x="1512.22" y="-488.7" font-family="Arial Bold" font-size="14.00" fill="blue"> S </text>
</g>
<!-- 10&#45;&gt;8 -->
<g id="edge19" class="edge">
<title>10&#45;&gt;8</title>
<path fill="none" stroke="black" d="M1914.51,-434.22C1908.62,-435.36 1902.76,-436.38 1896.97,-437.25 1763.93,-457.23 1611.66,-449.93 1497.68,-438.61"/>
<polygon fill="black" stroke="black" points="1498.24,-435.15 1487.93,-437.62 1497.53,-442.11 1498.24,-435.15"/>
<text xml:space="preserve" text-anchor="middle" x="1700.47" y="-452.22" font-family="Arial Bold" font-size="14.00" fill="blue"> , </text>
</g>
<!-- 12 -->
<g id="node15" class="node">
<title>12</title>
<path fill="lightblue" stroke="black" d="M2598.97,-454.25C2598.97,-454.25 2298.97,-454.25 2298.97,-454.25 2292.97,-454.25 2286.97,-448.25 2286.97,-442.25 2286.97,-442.25 2286.97,-322.25 2286.97,-322.25 2286.97,-316.25 2292.97,-310.25 2298.97,-310.25 2298.97,-310.25 2598.97,-310.25 2598.97,-310.25 2604.97,-310.25 2610.97,-316.25 2610.97,-322.25 2610.97,-322.25 2610.97,-442.25 2610.97,-442.25 2610.97,-448.25 2604.97,-454.25 2598.97,-454.25"/>
<text xml:space="preserve" text-anchor="start" x="2436.6" y="-397.95" font-family="Courier,monospace" font-weight="bold" font-size="14.00">I12</text>
<text xml:space="preserve" text-anchor="start" x="2391.22" y="-369.95" font-family="Courier,monospace" font-size="14.00">S → ( L ) •, )</text>
<text xml:space="preserve" text-anchor="start" x="2391.22" y="-355.95" font-family="Courier,monospace" font-size="14.00">S → ( L ) •, ,</text>
</g>
<!-- 10&#45;&gt;12 -->
<g id="edge18" class="edge">
<title>10&#45;&gt;12</title>
<path fill="none" stroke="black" d="M2239.45,-382.25C2251.32,-382.25 2263.32,-382.25 2275.26,-382.25"/>
<polygon fill="black" stroke="black" points="2275.16,-385.75 2285.16,-382.25 2275.16,-378.75 2275.16,-385.75"/>
<text xml:space="preserve" text-anchor="middle" x="2262.97" y="-384.7" font-family="Arial Bold" font-size="14.00" fill="blue"> ) </text>
</g>
</g>
</svg>
