<?xml version="1.0" encoding="UTF-8" standalone="no"?>
<!DOCTYPE svg PUBLIC "-//W3C//DTD SVG 1.1//EN"
 "http://www.w3.org/Graphics/SVG/1.1/DTD/svg11.dtd">
<!-- Generated by graphviz version 14.0.2 (20251019.1705)
 -->
<!-- Title: LR1_Automaton Pages: 1 -->
<svg width="6299pt" height="4584pt"
 viewBox="0.00 0.00 6299.00 4584.00" xmlns="http://www.w3.org/2000/svg" xmlns:xlink="http://www.w3.org/1999/xlink">
<g id="graph0" class="graph" transform="scale(4.16667 4.16667) rotate(0) translate(4 1096.25)">
<title>LR1_Automaton</title>
<polygon fill="white" stroke="none" points="-4,4 -4,-1096.25 1507.72,-1096.25 1507.72,4 -4,4"/>
<text xml:space="preserve" text-anchor="middle" x="751.86" y="-8.25" font-family="Arial Bold" font-size="20.00">Autómata LR(1)</text>
<!-- start -->
<g id="node1" class="node">
<title>start</title>
<ellipse fill="black" stroke="black" cx="0.36" cy="-483.25" rx="0.36" ry="0.36"/>
</g>
<!-- 0 -->
<g id="node2" class="node">
<title>0</title>
<path fill="lightgreen" stroke="black" d="M349.72,-560.65C349.72,-560.65 49.72,-560.65 49.72,-560.65 43.72,-560.65 37.72,-554.65 37.72,-548.65 37.72,-548.65 37.72,-417.85 37.72,-417.85 37.72,-411.85 43.72,-405.85 49.72,-405.85 49.72,-405.85 349.72,-405.85 349.72,-405.85 355.72,-405.85 361.72,-411.85 361.72,-417.85 361.72,-417.85 361.72,-548.65 361.72,-548.65 361.72,-554.65 355.72,-560.65 349.72,-560.65"/>
<text xml:space="preserve" text-anchor="start" x="191.47" y="-533.95" font-family="Courier,monospace" font-weight="bold" font-size="14.00">I0</text>
<text xml:space="preserve" text-anchor="start" x="146.09" y="-505.95" font-family="Courier,monospace" font-size="14.00">S&#39;&#39; → • S&#39;, $</text>
<text xml:space="preserve" text-anchor="start" x="154.34" y="-491.95" font-family="Courier,monospace" font-size="14.00">S&#39; → • S, $</text>
<text xml:space="preserve" text-anchor="start" x="150.22" y="-477.95" font-family="Courier,monospace" font-size="14.00">S → • C C, $</text>
<text xml:space="preserve" text-anchor="start" x="150.22" y="-463.95" font-family="Courier,monospace" font-size="14.00">C → • c C, c</text>
<text xml:space="preserve" text-anchor="start" x="150.22" y="-449.95" font-family="Courier,monospace" font-size="14.00">C → • c C, d</text>
<text xml:space="preserve" text-anchor="start" x="158.47" y="-435.95" font-family="Courier,monospace" font-size="14.00">C → • d, c</text>
<text xml:space="preserve" text-anchor="start" x="158.47" y="-421.95" font-family="Courier,monospace" font-size="14.00">C → • d, d</text>
</g>
<!-- start&#45;&gt;0 -->
<g id="edge1" class="edge">
<title>start&#45;&gt;0</title>
<path fill="none" stroke="#008b00" stroke-width="2" d="M0.86,-483.25C2.14,-483.25 11.77,-483.25 26.17,-483.25"/>
<polygon fill="#008b00" stroke="#008b00" stroke-width="2" points="24.42,-486.75 34.42,-483.25 24.42,-479.75 24.42,-486.75"/>
</g>
<!-- 1 -->
<g id="node3" class="node">
<title>1</title>
<path fill="lightblue" stroke="black" d="M733.22,-903.25C733.22,-903.25 433.22,-903.25 433.22,-903.25 427.22,-903.25 421.22,-897.25 421.22,-891.25 421.22,-891.25 421.22,-771.25 421.22,-771.25 421.22,-765.25 427.22,-759.25 433.22,-759.25 433.22,-759.25 733.22,-759.25 733.22,-759.25 739.22,-759.25 745.22,-765.25 745.22,-771.25 745.22,-771.25 745.22,-891.25 745.22,-891.25 745.22,-897.25 739.22,-903.25 733.22,-903.25"/>
<text xml:space="preserve" text-anchor="start" x="574.97" y="-853.95" font-family="Courier,monospace" font-weight="bold" font-size="14.00">I1</text>
<text xml:space="preserve" text-anchor="start" x="533.72" y="-825.95" font-family="Courier,monospace" font-size="14.00">S → C • C, $</text>
<text xml:space="preserve" text-anchor="start" x="533.72" y="-811.95" font-family="Courier,monospace" font-size="14.00">C → • c C, $</text>
<text xml:space="preserve" text-anchor="start" x="541.97" y="-797.95" font-family="Courier,monospace" font-size="14.00">C → • d, $</text>
</g>
<!-- 0&#45;&gt;1 -->
<g id="edge2" class="edge">
<title>0&#45;&gt;1</title>
<path fill="none" stroke="black" d="M285.86,-560.91C347.97,-617.57 431.88,-694.11 494.56,-751.29"/>
<polygon fill="black" stroke="black" points="492.01,-753.7 501.75,-757.85 496.73,-748.53 492.01,-753.7"/>
<text xml:space="preserve" text-anchor="middle" x="389.47" y="-659.7" font-family="Arial Bold" font-size="14.00" fill="blue"> C </text>
</g>
<!-- 2 -->
<g id="node4" class="node">
<title>2</title>
<path fill="lightblue" stroke="black" d="M1114.47,-660.25C1114.47,-660.25 814.47,-660.25 814.47,-660.25 808.47,-660.25 802.47,-654.25 802.47,-648.25 802.47,-648.25 802.47,-528.25 802.47,-528.25 802.47,-522.25 808.47,-516.25 814.47,-516.25 814.47,-516.25 1114.47,-516.25 1114.47,-516.25 1120.47,-516.25 1126.47,-522.25 1126.47,-528.25 1126.47,-528.25 1126.47,-648.25 1126.47,-648.25 1126.47,-654.25 1120.47,-660.25 1114.47,-660.25"/>
<text xml:space="preserve" text-anchor="start" x="956.22" y="-603.95" font-family="Courier,monospace" font-weight="bold" font-size="14.00">I2</text>
<text xml:space="preserve" text-anchor="start" x="923.22" y="-575.95" font-family="Courier,monospace" font-size="14.00">C → d •, c</text>
<text xml:space="preserve" text-anchor="start" x="923.22" y="-561.95" font-family="Courier,monospace" font-size="14.00">C → d •, d</text>
</g>
<!-- 0&#45;&gt;2 -->
<g id="edge6" class="edge">
<title>0&#45;&gt;2</title>
<path fill="none" stroke="black" d="M322.45,-561.09C352.33,-576.42 385.01,-590.23 417.22,-598.25 539.45,-628.7 681.86,-624.86 790.63,-614.12"/>
<polygon fill="black" stroke="black" points="790.95,-617.61 800.54,-613.11 790.23,-610.65 790.95,-617.61"/>
<text xml:space="preserve" text-anchor="middle" x="583.22" y="-624.42" font-family="Arial Bold" font-size="14.00" fill="blue"> d </text>
</g>
<!-- 3 -->
<g id="node5" class="node">
<title>3</title>
<path fill="lightblue" stroke="black" d="M733.22,-555.25C733.22,-555.25 433.22,-555.25 433.22,-555.25 427.22,-555.25 421.22,-549.25 421.22,-543.25 421.22,-543.25 421.22,-423.25 421.22,-423.25 421.22,-417.25 427.22,-411.25 433.22,-411.25 433.22,-411.25 733.22,-411.25 733.22,-411.25 739.22,-411.25 745.22,-417.25 745.22,-423.25 745.22,-423.25 745.22,-543.25 745.22,-543.25 745.22,-549.25 739.22,-555.25 733.22,-555.25"/>
<text xml:space="preserve" text-anchor="start" x="574.97" y="-526.95" font-family="Courier,monospace" font-weight="bold" font-size="14.00">I3</text>
<text xml:space="preserve" text-anchor="start" x="533.72" y="-498.95" font-family="Courier,monospace" font-size="14.00">C → • c C, c</text>
<text xml:space="preserve" text-anchor="start" x="533.72" y="-484.95" font-family="Courier,monospace" font-size="14.00">C → • c C, d</text>
<text xml:space="preserve" text-anchor="start" x="533.72" y="-470.95" font-family="Courier,monospace" font-size="14.00">C → c • C, c</text>
<text xml:space="preserve" text-anchor="start" x="533.72" y="-456.95" font-family="Courier,monospace" font-size="14.00">C → c • C, d</text>
<text xml:space="preserve" text-anchor="start" x="541.97" y="-442.95" font-family="Courier,monospace" font-size="14.00">C → • d, c</text>
<text xml:space="preserve" text-anchor="start" x="541.97" y="-428.95" font-family="Courier,monospace" font-size="14.00">C → • d, d</text>
</g>
<!-- 0&#45;&gt;3 -->
<g id="edge5" class="edge">
<title>0&#45;&gt;3</title>
<path fill="none" stroke="black" d="M361.96,-483.25C377.67,-483.25 393.65,-483.25 409.47,-483.25"/>
<polygon fill="black" stroke="black" points="409.43,-486.75 419.43,-483.25 409.43,-479.75 409.43,-486.75"/>
<text xml:space="preserve" text-anchor="middle" x="389.47" y="-485.7" font-family="Arial Bold" font-size="14.00" fill="blue"> c </text>
</g>
<!-- 4 -->
<g id="node6" class="node">
<title>4</title>
<path fill="lightcoral" stroke="black" d="M733.22,-389.25C733.22,-389.25 433.22,-389.25 433.22,-389.25 427.22,-389.25 421.22,-383.25 421.22,-377.25 421.22,-377.25 421.22,-257.25 421.22,-257.25 421.22,-251.25 427.22,-245.25 433.22,-245.25 433.22,-245.25 733.22,-245.25 733.22,-245.25 739.22,-245.25 745.22,-251.25 745.22,-257.25 745.22,-257.25 745.22,-377.25 745.22,-377.25 745.22,-383.25 739.22,-389.25 733.22,-389.25"/>
<path fill="none" stroke="black" d="M737.22,-393.25C737.22,-393.25 429.22,-393.25 429.22,-393.25 423.22,-393.25 417.22,-387.25 417.22,-381.25 417.22,-381.25 417.22,-253.25 417.22,-253.25 417.22,-247.25 423.22,-241.25 429.22,-241.25 429.22,-241.25 737.22,-241.25 737.22,-241.25 743.22,-241.25 749.22,-247.25 749.22,-253.25 749.22,-253.25 749.22,-381.25 749.22,-381.25 749.22,-387.25 743.22,-393.25 737.22,-393.25"/>
<text xml:space="preserve" text-anchor="start" x="574.97" y="-325.95" font-family="Courier,monospace" font-weight="bold" font-size="14.00">I4</text>
<text xml:space="preserve" text-anchor="start" x="529.59" y="-297.95" font-family="Courier,monospace" font-size="14.00">S&#39;&#39; → S&#39; •, $</text>
</g>
<!-- 0&#45;&gt;4 -->
<g id="edge4" class="edge">
<title>0&#45;&gt;4</title>
<path fill="none" stroke="black" d="M361.96,-413.09C376.75,-406.66 391.78,-400.12 406.68,-393.63"/>
<polygon fill="black" stroke="black" points="407.82,-396.95 415.59,-389.76 405.02,-390.54 407.82,-396.95"/>
<text xml:space="preserve" text-anchor="middle" x="389.47" y="-407.68" font-family="Arial Bold" font-size="14.00" fill="blue"> S&#39; </text>
</g>
<!-- 5 -->
<g id="node7" class="node">
<title>5</title>
<path fill="lightblue" stroke="black" d="M733.22,-223.25C733.22,-223.25 433.22,-223.25 433.22,-223.25 427.22,-223.25 421.22,-217.25 421.22,-211.25 421.22,-211.25 421.22,-91.25 421.22,-91.25 421.22,-85.25 427.22,-79.25 433.22,-79.25 433.22,-79.25 733.22,-79.25 733.22,-79.25 739.22,-79.25 745.22,-85.25 745.22,-91.25 745.22,-91.25 745.22,-211.25 745.22,-211.25 745.22,-217.25 739.22,-223.25 733.22,-223.25"/>
<text xml:space="preserve" text-anchor="start" x="574.97" y="-159.95" font-family="Courier,monospace" font-weight="bold" font-size="14.00">I5</text>
<text xml:space="preserve" text-anchor="start" x="537.84" y="-131.95" font-family="Courier,monospace" font-size="14.00">S&#39; → S •, $</text>
</g>
<!-- 0&#45;&gt;5 -->
<g id="edge3" class="edge">
<title>0&#45;&gt;5</title>
<path fill="none" stroke="black" d="M254.73,-405.4C294.9,-351.7 353.57,-281.41 417.22,-232.25 418.05,-231.61 418.88,-230.97 419.72,-230.34"/>
<polygon fill="black" stroke="black" points="421.66,-233.26 427.7,-224.56 417.55,-227.59 421.66,-233.26"/>
<text xml:space="preserve" text-anchor="middle" x="389.47" y="-263.61" font-family="Arial Bold" font-size="14.00" fill="blue"> S </text>
</g>
<!-- 6 -->
<g id="node8" class="node">
<title>6</title>
<path fill="lightblue" stroke="black" d="M1114.47,-1036.25C1114.47,-1036.25 814.47,-1036.25 814.47,-1036.25 808.47,-1036.25 802.47,-1030.25 802.47,-1024.25 802.47,-1024.25 802.47,-904.25 802.47,-904.25 802.47,-898.25 808.47,-892.25 814.47,-892.25 814.47,-892.25 1114.47,-892.25 1114.47,-892.25 1120.47,-892.25 1126.47,-898.25 1126.47,-904.25 1126.47,-904.25 1126.47,-1024.25 1126.47,-1024.25 1126.47,-1030.25 1120.47,-1036.25 1114.47,-1036.25"/>
<text xml:space="preserve" text-anchor="start" x="956.22" y="-986.95" font-family="Courier,monospace" font-weight="bold" font-size="14.00">I6</text>
<text xml:space="preserve" text-anchor="start" x="914.97" y="-958.95" font-family="Courier,monospace" font-size="14.00">C → • c C, $</text>
<text xml:space="preserve" text-anchor="start" x="914.97" y="-944.95" font-family="Courier,monospace" font-size="14.00">C → c • C, $</text>
<text xml:space="preserve" text-anchor="start" x="923.22" y="-930.95" font-family="Courier,monospace" font-size="14.00">C → • d, $</text>
</g>
<!-- 1&#45;&gt;6 -->
<g id="edge8" class="edge">
<title>1&#45;&gt;6</title>
<path fill="none" stroke="black" d="M745.61,-887.85C760.84,-893.19 776.32,-898.62 791.65,-903.99"/>
<polygon fill="black" stroke="black" points="790.21,-907.2 800.8,-907.2 792.52,-900.59 790.21,-907.2"/>
<text xml:space="preserve" text-anchor="middle" x="775.84" y="-900.2" font-family="Arial Bold" font-size="14.00" fill="blue"> c </text>
</g>
<!-- 7 -->
<g id="node9" class="node">
<title>7</title>
<path fill="lightblue" stroke="black" d="M1491.72,-930.25C1491.72,-930.25 1191.72,-930.25 1191.72,-930.25 1185.72,-930.25 1179.72,-924.25 1179.72,-918.25 1179.72,-918.25 1179.72,-798.25 1179.72,-798.25 1179.72,-792.25 1185.72,-786.25 1191.72,-786.25 1191.72,-786.25 1491.72,-786.25 1491.72,-786.25 1497.72,-786.25 1503.72,-792.25 1503.72,-798.25 1503.72,-798.25 1503.72,-918.25 1503.72,-918.25 1503.72,-924.25 1497.72,-930.25 1491.72,-930.25"/>
<text xml:space="preserve" text-anchor="start" x="1333.47" y="-866.95" font-family="Courier,monospace" font-weight="bold" font-size="14.00">I7</text>
<text xml:space="preserve" text-anchor="start" x="1300.47" y="-838.95" font-family="Courier,monospace" font-size="14.00">C → d •, $</text>
</g>
<!-- 1&#45;&gt;7 -->
<g id="edge9" class="edge">
<title>1&#45;&gt;7</title>
<path fill="none" stroke="black" d="M745.58,-837.01C869.74,-841.44 1040.98,-847.55 1167.91,-852.08"/>
<polygon fill="black" stroke="black" points="1167.65,-855.58 1177.77,-852.43 1167.9,-848.58 1167.65,-855.58"/>
<text xml:space="preserve" text-anchor="middle" x="964.47" y="-852.89" font-family="Arial Bold" font-size="14.00" fill="blue"> d </text>
</g>
<!-- 8 -->
<g id="node10" class="node">
<title>8</title>
<path fill="lightblue" stroke="black" d="M1114.47,-822.25C1114.47,-822.25 814.47,-822.25 814.47,-822.25 808.47,-822.25 802.47,-816.25 802.47,-810.25 802.47,-810.25 802.47,-690.25 802.47,-690.25 802.47,-684.25 808.47,-678.25 814.47,-678.25 814.47,-678.25 1114.47,-678.25 1114.47,-678.25 1120.47,-678.25 1126.47,-684.25 1126.47,-690.25 1126.47,-690.25 1126.47,-810.25 1126.47,-810.25 1126.47,-816.25 1120.47,-822.25 1114.47,-822.25"/>
<text xml:space="preserve" text-anchor="start" x="956.22" y="-758.95" font-family="Courier,monospace" font-weight="bold" font-size="14.00">I8</text>
<text xml:space="preserve" text-anchor="start" x="914.97" y="-730.95" font-family="Courier,monospace" font-size="14.00">S → C C •, $</text>
</g>
<!-- 1&#45;&gt;8 -->
<g id="edge7" class="edge">
<title>1&#45;&gt;8</title>
<path fill="none" stroke="black" d="M745.61,-796.78C760.69,-793.56 776.02,-790.28 791.21,-787.04"/>
<polygon fill="black" stroke="black" points="791.7,-790.52 800.75,-785 790.24,-783.67 791.7,-790.52"/>
<text xml:space="preserve" text-anchor="middle" x="775.84" y="-793.2" font-family="Arial Bold" font-size="14.00" fill="blue"> C </text>
</g>
<!-- 3&#45;&gt;2 -->
<g id="edge12" class="edge">
<title>3&#45;&gt;2</title>
<path fill="none" stroke="black" d="M745.61,-527.93C760.69,-532.11 776.02,-536.35 791.21,-540.56"/>
<polygon fill="black" stroke="black" points="790.2,-543.91 800.77,-543.2 792.07,-537.16 790.2,-543.91"/>
<text xml:space="preserve" text-anchor="middle" x="775.84" y="-538.2" font-family="Arial Bold" font-size="14.00" fill="blue"> d </text>
</g>
<!-- 3&#45;&gt;3 -->
<g id="edge11" class="edge">
<title>3&#45;&gt;3</title>
<path fill="none" stroke="black" d="M550.63,-555.64C555.8,-566.16 566.67,-573.25 583.22,-573.25 594.34,-573.25 602.9,-570.05 608.88,-564.76"/>
<polygon fill="black" stroke="black" points="611.63,-566.92 614.89,-556.84 606.06,-562.69 611.63,-566.92"/>
<text xml:space="preserve" text-anchor="middle" x="583.22" y="-575.7" font-family="Arial Bold" font-size="14.00" fill="blue"> c </text>
</g>
<!-- 9 -->
<g id="node11" class="node">
<title>9</title>
<path fill="lightblue" stroke="black" d="M1114.47,-498.25C1114.47,-498.25 814.47,-498.25 814.47,-498.25 808.47,-498.25 802.47,-492.25 802.47,-486.25 802.47,-486.25 802.47,-366.25 802.47,-366.25 802.47,-360.25 808.47,-354.25 814.47,-354.25 814.47,-354.25 1114.47,-354.25 1114.47,-354.25 1120.47,-354.25 1126.47,-360.25 1126.47,-366.25 1126.47,-366.25 1126.47,-486.25 1126.47,-486.25 1126.47,-492.25 1120.47,-498.25 1114.47,-498.25"/>
<text xml:space="preserve" text-anchor="start" x="956.22" y="-441.95" font-family="Courier,monospace" font-weight="bold" font-size="14.00">I9</text>
<text xml:space="preserve" text-anchor="start" x="914.97" y="-413.95" font-family="Courier,monospace" font-size="14.00">C → c C •, c</text>
<text xml:space="preserve" text-anchor="start" x="914.97" y="-399.95" font-family="Courier,monospace" font-size="14.00">C → c C •, d</text>
</g>
<!-- 3&#45;&gt;9 -->
<g id="edge10" class="edge">
<title>3&#45;&gt;9</title>
<path fill="none" stroke="black" d="M745.61,-458.99C760.69,-456.73 776.02,-454.42 791.21,-452.14"/>
<polygon fill="black" stroke="black" points="791.36,-455.66 800.73,-450.71 790.32,-448.73 791.36,-455.66"/>
<text xml:space="preserve" text-anchor="middle" x="775.84" y="-457.2" font-family="Arial Bold" font-size="14.00" fill="blue"> C </text>
</g>
<!-- 6&#45;&gt;6 -->
<g id="edge14" class="edge">
<title>6&#45;&gt;6</title>
<path fill="none" stroke="black" d="M932.56,-1036.64C937.62,-1047.16 948.26,-1054.25 964.47,-1054.25 975.36,-1054.25 983.74,-1051.05 989.6,-1045.76"/>
<polygon fill="black" stroke="black" points="992.32,-1047.96 995.48,-1037.85 986.7,-1043.78 992.32,-1047.96"/>
<text xml:space="preserve" text-anchor="middle" x="964.47" y="-1056.7" font-family="Arial Bold" font-size="14.00" fill="blue"> c </text>
</g>
<!-- 6&#45;&gt;7 -->
<g id="edge15" class="edge">
<title>6&#45;&gt;7</title>
<path fill="none" stroke="black" d="M1126.79,-918.68C1140.5,-914.81 1154.41,-910.88 1168.21,-906.98"/>
<polygon fill="black" stroke="black" points="1169.11,-910.36 1177.78,-904.28 1167.21,-903.63 1169.11,-910.36"/>
<text xml:space="preserve" text-anchor="middle" x="1153.09" y="-913.7" font-family="Arial Bold" font-size="14.00" fill="blue"> d </text>
</g>
<!-- 10 -->
<g id="node12" class="node">
<title>10</title>
<path fill="lightblue" stroke="black" d="M1491.72,-1092.25C1491.72,-1092.25 1191.72,-1092.25 1191.72,-1092.25 1185.72,-1092.25 1179.72,-1086.25 1179.72,-1080.25 1179.72,-1080.25 1179.72,-960.25 1179.72,-960.25 1179.72,-954.25 1185.72,-948.25 1191.72,-948.25 1191.72,-948.25 1491.72,-948.25 1491.72,-948.25 1497.72,-948.25 1503.72,-954.25 1503.72,-960.25 1503.72,-960.25 1503.72,-1080.25 1503.72,-1080.25 1503.72,-1086.25 1497.72,-1092.25 1491.72,-1092.25"/>
<text xml:space="preserve" text-anchor="start" x="1329.34" y="-1028.95" font-family="Courier,monospace" font-weight="bold" font-size="14.00">I10</text>
<text xml:space="preserve" text-anchor="start" x="1292.22" y="-1000.95" font-family="Courier,monospace" font-size="14.00">C → c C •, $</text>
</g>
<!-- 6&#45;&gt;10 -->
<g id="edge13" class="edge">
<title>6&#45;&gt;10</title>
<path fill="none" stroke="black" d="M1126.79,-988.32C1140.5,-990.37 1154.41,-992.45 1168.21,-994.5"/>
<polygon fill="black" stroke="black" points="1167.34,-997.91 1177.74,-995.93 1168.37,-990.99 1167.34,-997.91"/>
<text xml:space="preserve" text-anchor="middle" x="1153.09" y="-994.7" font-family="Arial Bold" font-size="14.00" fill="blue"> C </text>
</g>
</g>
</svg>
