<?xml version="1.0" encoding="UTF-8" standalone="no"?>
<!DOCTYPE svg PUBLIC "-//W3C//DTD SVG 1.1//EN"
 "http://www.w3.org/Graphics/SVG/1.1/DTD/svg11.dtd">
<!-- Generated by graphviz version 14.0.2 (20251019.1705)
 -->
<!-- Title: LR1_Automaton Pages: 1 -->
<svg width="6565pt" height="2447pt"
 viewBox="0.00 0.00 6565.00 2447.00" xmlns="http://www.w3.org/2000/svg" xmlns:xlink="http://www.w3.org/1999/xlink">
<g id="graph0" class="graph" transform="scale(4.16667 4.16667) rotate(0) translate(4 583.25)">
<title>LR1_Automaton</title>
<polygon fill="white" stroke="none" points="-4,4 -4,-583.25 1571.72,-583.25 1571.72,4 -4,4"/>
<text xml:space="preserve" text-anchor="middle" x="783.86" y="-8.25" font-family="Arial Bold" font-size="20.00">Autómata LR(1)</text>
<!-- start -->
<g id="node1" class="node">
<title>start</title>
<ellipse fill="black" stroke="black" cx="0.36" cy="-407.25" rx="0.36" ry="0.36"/>
</g>
<!-- 0 -->
<g id="node3" class="node">
<title>0</title>
<path fill="lightgreen" stroke="black" d="M349.72,-484.65C349.72,-484.65 49.72,-484.65 49.72,-484.65 43.72,-484.65 37.72,-478.65 37.72,-472.65 37.72,-472.65 37.72,-341.85 37.72,-341.85 37.72,-335.85 43.72,-329.85 49.72,-329.85 49.72,-329.85 349.72,-329.85 349.72,-329.85 355.72,-329.85 361.72,-335.85 361.72,-341.85 361.72,-341.85 361.72,-472.65 361.72,-472.65 361.72,-478.65 355.72,-484.65 349.72,-484.65"/>
<text xml:space="preserve" text-anchor="start" x="191.47" y="-457.95" font-family="Courier,monospace" font-weight="bold" font-size="14.00">I0</text>
<text xml:space="preserve" text-anchor="start" x="88.34" y="-429.95" font-family="Courier,monospace" font-size="14.00">Secuencia&#39; → • Secuencia, $</text>
<text xml:space="preserve" text-anchor="start" x="63.59" y="-415.95" font-family="Courier,monospace" font-size="14.00">Secuencia → • Secuencia ; Sent, $</text>
<text xml:space="preserve" text-anchor="start" x="63.59" y="-401.95" font-family="Courier,monospace" font-size="14.00">Secuencia → • Secuencia ; Sent, ;</text>
<text xml:space="preserve" text-anchor="start" x="113.09" y="-387.95" font-family="Courier,monospace" font-size="14.00">Secuencia → • Sent, $</text>
<text xml:space="preserve" text-anchor="start" x="113.09" y="-373.95" font-family="Courier,monospace" font-size="14.00">Secuencia → • Sent, ;</text>
<text xml:space="preserve" text-anchor="start" x="146.09" y="-359.95" font-family="Courier,monospace" font-size="14.00">Sent → • s, $</text>
<text xml:space="preserve" text-anchor="start" x="146.09" y="-345.95" font-family="Courier,monospace" font-size="14.00">Sent → • s, ;</text>
</g>
<!-- start&#45;&gt;0 -->
<g id="edge1" class="edge">
<title>start&#45;&gt;0</title>
<path fill="none" stroke="#008b00" stroke-width="2" d="M0.86,-407.25C2.14,-407.25 11.77,-407.25 26.17,-407.25"/>
<polygon fill="#008b00" stroke="#008b00" stroke-width="2" points="24.42,-410.75 34.42,-407.25 24.42,-403.75 24.42,-410.75"/>
</g>
<!-- accept -->
<g id="node2" class="node">
<title>accept</title>
<ellipse fill="lightcoral" stroke="black" cx="1008.97" cy="-310.25" rx="64.98" ry="64.98"/>
<ellipse fill="none" stroke="black" cx="1008.97" cy="-310.25" rx="68.98" ry="68.98"/>
<text xml:space="preserve" text-anchor="start" x="977.47" y="-304.65" font-family="Courier,monospace" font-weight="bold" font-size="18.00">ACCEPT</text>
</g>
<!-- 1 -->
<g id="node4" class="node">
<title>1</title>
<path fill="lightblue" stroke="black" d="M783.97,-579.25C783.97,-579.25 483.97,-579.25 483.97,-579.25 477.97,-579.25 471.97,-573.25 471.97,-567.25 471.97,-567.25 471.97,-447.25 471.97,-447.25 471.97,-441.25 477.97,-435.25 483.97,-435.25 483.97,-435.25 783.97,-435.25 783.97,-435.25 789.97,-435.25 795.97,-441.25 795.97,-447.25 795.97,-447.25 795.97,-567.25 795.97,-567.25 795.97,-573.25 789.97,-579.25 783.97,-579.25"/>
<text xml:space="preserve" text-anchor="start" x="625.72" y="-522.95" font-family="Courier,monospace" font-weight="bold" font-size="14.00">I1</text>
<text xml:space="preserve" text-anchor="start" x="547.34" y="-494.95" font-family="Courier,monospace" font-size="14.00">Secuencia → Sent •, $</text>
<text xml:space="preserve" text-anchor="start" x="547.34" y="-480.95" font-family="Courier,monospace" font-size="14.00">Secuencia → Sent •, ;</text>
</g>
<!-- 0&#45;&gt;1 -->
<g id="edge3" class="edge">
<title>0&#45;&gt;1</title>
<path fill="none" stroke="black" d="M361.98,-444.56C394.21,-452.01 428.17,-459.87 460.75,-467.41"/>
<polygon fill="black" stroke="black" points="459.73,-470.76 470.26,-469.61 461.31,-463.94 459.73,-470.76"/>
<text xml:space="preserve" text-anchor="middle" x="416.84" y="-465.69" font-family="Arial Bold" font-size="14.00" fill="blue"> Sent </text>
</g>
<!-- 2 -->
<g id="node5" class="node">
<title>2</title>
<path fill="lightblue" stroke="black" d="M1555.72,-432.25C1555.72,-432.25 1255.72,-432.25 1255.72,-432.25 1249.72,-432.25 1243.72,-426.25 1243.72,-420.25 1243.72,-420.25 1243.72,-300.25 1243.72,-300.25 1243.72,-294.25 1249.72,-288.25 1255.72,-288.25 1255.72,-288.25 1555.72,-288.25 1555.72,-288.25 1561.72,-288.25 1567.72,-294.25 1567.72,-300.25 1567.72,-300.25 1567.72,-420.25 1567.72,-420.25 1567.72,-426.25 1561.72,-432.25 1555.72,-432.25"/>
<text xml:space="preserve" text-anchor="start" x="1397.47" y="-375.95" font-family="Courier,monospace" font-weight="bold" font-size="14.00">I2</text>
<text xml:space="preserve" text-anchor="start" x="1352.09" y="-347.95" font-family="Courier,monospace" font-size="14.00">Sent → s •, $</text>
<text xml:space="preserve" text-anchor="start" x="1352.09" y="-333.95" font-family="Courier,monospace" font-size="14.00">Sent → s •, ;</text>
</g>
<!-- 0&#45;&gt;2 -->
<g id="edge4" class="edge">
<title>0&#45;&gt;2</title>
<path fill="none" stroke="black" d="M361.89,-409C554.58,-409.95 886.72,-408.01 1170.97,-388.25 1190.75,-386.87 1211.43,-385.02 1231.96,-382.9"/>
<polygon fill="black" stroke="black" points="1232.25,-386.39 1241.83,-381.87 1231.52,-379.43 1232.25,-386.39"/>
<text xml:space="preserve" text-anchor="middle" x="821.47" y="-406.72" font-family="Arial Bold" font-size="14.00" fill="blue"> s </text>
</g>
<!-- 3 -->
<g id="node6" class="node">
<title>3</title>
<path fill="lightcoral" stroke="black" d="M783.97,-379.25C783.97,-379.25 483.97,-379.25 483.97,-379.25 477.97,-379.25 471.97,-373.25 471.97,-367.25 471.97,-367.25 471.97,-247.25 471.97,-247.25 471.97,-241.25 477.97,-235.25 483.97,-235.25 483.97,-235.25 783.97,-235.25 783.97,-235.25 789.97,-235.25 795.97,-241.25 795.97,-247.25 795.97,-247.25 795.97,-367.25 795.97,-367.25 795.97,-373.25 789.97,-379.25 783.97,-379.25"/>
<text xml:space="preserve" text-anchor="start" x="625.72" y="-329.95" font-family="Courier,monospace" font-weight="bold" font-size="14.00">I3</text>
<text xml:space="preserve" text-anchor="start" x="522.59" y="-301.95" font-family="Courier,monospace" font-size="14.00">Secuencia&#39; → Secuencia •, $</text>
<text xml:space="preserve" text-anchor="start" x="497.84" y="-287.95" font-family="Courier,monospace" font-size="14.00">Secuencia → Secuencia • ; Sent, $</text>
<text xml:space="preserve" text-anchor="start" x="497.84" y="-273.95" font-family="Courier,monospace" font-size="14.00">Secuencia → Secuencia • ; Sent, ;</text>
</g>
<!-- 0&#45;&gt;3 -->
<g id="edge2" class="edge">
<title>0&#45;&gt;3</title>
<path fill="none" stroke="black" d="M361.98,-369.94C394.21,-362.49 428.17,-354.63 460.75,-347.09"/>
<polygon fill="black" stroke="black" points="461.31,-350.56 470.26,-344.89 459.73,-343.74 461.31,-350.56"/>
<text xml:space="preserve" text-anchor="middle" x="416.84" y="-365.69" font-family="Arial Bold" font-size="14.00" fill="blue"> Secuencia </text>
</g>
<!-- 3&#45;&gt;accept -->
<g id="edge8" class="edge">
<title>3&#45;&gt;accept</title>
<path fill="none" stroke="red" stroke-width="2" d="M796.4,-308.55C842.1,-308.92 889.84,-309.3 928.38,-309.61"/>
<polygon fill="red" stroke="red" stroke-width="2" points="926.46,-313.09 936.49,-309.68 926.52,-306.09 926.46,-313.09"/>
<text xml:space="preserve" text-anchor="middle" x="821.47" y="-312.3" font-family="Arial Bold" font-size="16.00" fill="red">$</text>
</g>
<!-- 4 -->
<g id="node7" class="node">
<title>4</title>
<path fill="lightblue" stroke="black" d="M1158.97,-223.25C1158.97,-223.25 858.97,-223.25 858.97,-223.25 852.97,-223.25 846.97,-217.25 846.97,-211.25 846.97,-211.25 846.97,-91.25 846.97,-91.25 846.97,-85.25 852.97,-79.25 858.97,-79.25 858.97,-79.25 1158.97,-79.25 1158.97,-79.25 1164.97,-79.25 1170.97,-85.25 1170.97,-91.25 1170.97,-91.25 1170.97,-211.25 1170.97,-211.25 1170.97,-217.25 1164.97,-223.25 1158.97,-223.25"/>
<text xml:space="preserve" text-anchor="start" x="1000.72" y="-180.95" font-family="Courier,monospace" font-weight="bold" font-size="14.00">I4</text>
<text xml:space="preserve" text-anchor="start" x="872.84" y="-152.95" font-family="Courier,monospace" font-size="14.00">Secuencia → Secuencia ; • Sent, $</text>
<text xml:space="preserve" text-anchor="start" x="872.84" y="-138.95" font-family="Courier,monospace" font-size="14.00">Secuencia → Secuencia ; • Sent, ;</text>
<text xml:space="preserve" text-anchor="start" x="955.34" y="-124.95" font-family="Courier,monospace" font-size="14.00">Sent → • s, $</text>
<text xml:space="preserve" text-anchor="start" x="955.34" y="-110.95" font-family="Courier,monospace" font-size="14.00">Sent → • s, ;</text>
</g>
<!-- 3&#45;&gt;4 -->
<g id="edge5" class="edge">
<title>3&#45;&gt;4</title>
<path fill="none" stroke="black" d="M796.4,-239.73C809.53,-234.24 822.83,-228.68 836.03,-223.16"/>
<polygon fill="black" stroke="black" points="837.31,-226.42 845.19,-219.33 834.61,-219.96 837.31,-226.42"/>
<text xml:space="preserve" text-anchor="middle" x="821.47" y="-231.7" font-family="Arial Bold" font-size="14.00" fill="blue"> ; </text>
</g>
<!-- 4&#45;&gt;2 -->
<g id="edge7" class="edge">
<title>4&#45;&gt;2</title>
<path fill="none" stroke="black" d="M1154.48,-223.65C1160.06,-226.54 1165.57,-229.41 1170.97,-232.25 1201.37,-248.22 1233.79,-265.68 1264.51,-282.44"/>
<polygon fill="black" stroke="black" points="1262.63,-285.4 1273.08,-287.12 1265.99,-279.26 1262.63,-285.4"/>
<text xml:space="preserve" text-anchor="middle" x="1207.34" y="-262.13" font-family="Arial Bold" font-size="14.00" fill="blue"> s </text>
</g>
<!-- 5 -->
<g id="node8" class="node">
<title>5</title>
<path fill="lightblue" stroke="black" d="M1555.72,-223.25C1555.72,-223.25 1255.72,-223.25 1255.72,-223.25 1249.72,-223.25 1243.72,-217.25 1243.72,-211.25 1243.72,-211.25 1243.72,-91.25 1243.72,-91.25 1243.72,-85.25 1249.72,-79.25 1255.72,-79.25 1255.72,-79.25 1555.72,-79.25 1555.72,-79.25 1561.72,-79.25 1567.72,-85.25 1567.72,-91.25 1567.72,-91.25 1567.72,-211.25 1567.72,-211.25 1567.72,-217.25 1561.72,-223.25 1555.72,-223.25"/>
<text xml:space="preserve" text-anchor="start" x="1397.47" y="-166.95" font-family="Courier,monospace" font-weight="bold" font-size="14.00">I5</text>
<text xml:space="preserve" text-anchor="start" x="1269.59" y="-138.95" font-family="Courier,monospace" font-size="14.00">Secuencia → Secuencia ; Sent •, $</text>
<text xml:space="preserve" text-anchor="start" x="1269.59" y="-124.95" font-family="Courier,monospace" font-size="14.00">Secuencia → Secuencia ; Sent •, ;</text>
</g>
<!-- 4&#45;&gt;5 -->
<g id="edge6" class="edge">
<title>4&#45;&gt;5</title>
<path fill="none" stroke="black" d="M1171.38,-151.25C1191.34,-151.25 1211.79,-151.25 1231.91,-151.25"/>
<polygon fill="black" stroke="black" points="1231.86,-154.75 1241.86,-151.25 1231.86,-147.75 1231.86,-154.75"/>
<text xml:space="preserve" text-anchor="middle" x="1207.34" y="-153.7" font-family="Arial Bold" font-size="14.00" fill="blue"> Sent </text>
</g>
</g>
</svg>
