<?xml version="1.0" encoding="UTF-8" standalone="no"?>
<!DOCTYPE svg PUBLIC "-//W3C//DTD SVG 1.1//EN"
 "http://www.w3.org/Graphics/SVG/1.1/DTD/svg11.dtd">
<!-- Generated by graphviz version 14.0.2 (20251019.1705)
 -->
<!-- Title: LR1_Automaton Pages: 1 -->
<svg width="6256pt" height="3997pt"
 viewBox="0.00 0.00 6256.00 3997.00" xmlns="http://www.w3.org/2000/svg" xmlns:xlink="http://www.w3.org/1999/xlink">
<g id="graph0" class="graph" transform="scale(4.16667 4.16667) rotate(0) translate(4 955.23)">
<title>LR1_Automaton</title>
<polygon fill="white" stroke="none" points="-4,4 -4,-955.23 1497.47,-955.23 1497.47,4 -4,4"/>
<text xml:space="preserve" text-anchor="middle" x="746.73" y="-8.25" font-family="Arial Bold" font-size="20.00">Autómata LR(1)</text>
<!-- start -->
<g id="node1" class="node">
<title>start</title>
<ellipse fill="black" stroke="black" cx="0.36" cy="-687.25" rx="0.36" ry="0.36"/>
</g>
<!-- 0 -->
<g id="node3" class="node">
<title>0</title>
<path fill="lightgreen" stroke="black" d="M349.72,-759.25C349.72,-759.25 49.72,-759.25 49.72,-759.25 43.72,-759.25 37.72,-753.25 37.72,-747.25 37.72,-747.25 37.72,-627.25 37.72,-627.25 37.72,-621.25 43.72,-615.25 49.72,-615.25 49.72,-615.25 349.72,-615.25 349.72,-615.25 355.72,-615.25 361.72,-621.25 361.72,-627.25 361.72,-627.25 361.72,-747.25 361.72,-747.25 361.72,-753.25 355.72,-759.25 349.72,-759.25"/>
<text xml:space="preserve" text-anchor="start" x="191.47" y="-730.95" font-family="Courier,monospace" font-weight="bold" font-size="14.00">I0</text>
<text xml:space="preserve" text-anchor="start" x="154.34" y="-702.95" font-family="Courier,monospace" font-size="14.00">S&#39; → • S, $</text>
<text xml:space="preserve" text-anchor="start" x="150.22" y="-688.95" font-family="Courier,monospace" font-size="14.00">S → • C C, $</text>
<text xml:space="preserve" text-anchor="start" x="150.22" y="-674.95" font-family="Courier,monospace" font-size="14.00">C → • c C, c</text>
<text xml:space="preserve" text-anchor="start" x="150.22" y="-660.95" font-family="Courier,monospace" font-size="14.00">C → • c C, d</text>
<text xml:space="preserve" text-anchor="start" x="158.47" y="-646.95" font-family="Courier,monospace" font-size="14.00">C → • d, c</text>
<text xml:space="preserve" text-anchor="start" x="158.47" y="-632.95" font-family="Courier,monospace" font-size="14.00">C → • d, d</text>
</g>
<!-- start&#45;&gt;0 -->
<g id="edge1" class="edge">
<title>start&#45;&gt;0</title>
<path fill="none" stroke="#008b00" stroke-width="2" d="M0.86,-687.25C2.14,-687.25 11.77,-687.25 26.17,-687.25"/>
<polygon fill="#008b00" stroke="#008b00" stroke-width="2" points="24.42,-690.75 34.42,-687.25 24.42,-683.75 24.42,-690.75"/>
</g>
<!-- accept -->
<g id="node2" class="node">
<title>accept</title>
<ellipse fill="lightcoral" stroke="black" cx="954.22" cy="-882.25" rx="64.98" ry="64.98"/>
<ellipse fill="none" stroke="black" cx="954.22" cy="-882.25" rx="68.98" ry="68.98"/>
<text xml:space="preserve" text-anchor="start" x="922.72" y="-876.65" font-family="Courier,monospace" font-weight="bold" font-size="18.00">ACCEPT</text>
</g>
<!-- 1 -->
<g id="node4" class="node">
<title>1</title>
<path fill="lightblue" stroke="black" d="M1104.22,-795.25C1104.22,-795.25 804.22,-795.25 804.22,-795.25 798.22,-795.25 792.22,-789.25 792.22,-783.25 792.22,-783.25 792.22,-663.25 792.22,-663.25 792.22,-657.25 798.22,-651.25 804.22,-651.25 804.22,-651.25 1104.22,-651.25 1104.22,-651.25 1110.22,-651.25 1116.22,-657.25 1116.22,-663.25 1116.22,-663.25 1116.22,-783.25 1116.22,-783.25 1116.22,-789.25 1110.22,-795.25 1104.22,-795.25"/>
<text xml:space="preserve" text-anchor="start" x="945.97" y="-738.95" font-family="Courier,monospace" font-weight="bold" font-size="14.00">I1</text>
<text xml:space="preserve" text-anchor="start" x="912.97" y="-710.95" font-family="Courier,monospace" font-size="14.00">C → d •, c</text>
<text xml:space="preserve" text-anchor="start" x="912.97" y="-696.95" font-family="Courier,monospace" font-size="14.00">C → d •, d</text>
</g>
<!-- 0&#45;&gt;1 -->
<g id="edge5" class="edge">
<title>0&#45;&gt;1</title>
<path fill="none" stroke="black" d="M362.15,-694.97C485.29,-700.86 654.6,-708.96 780.46,-714.98"/>
<polygon fill="black" stroke="black" points="780.07,-718.47 790.22,-715.45 780.4,-711.48 780.07,-718.47"/>
<text xml:space="preserve" text-anchor="middle" x="576.97" y="-715.28" font-family="Arial Bold" font-size="14.00" fill="blue"> d </text>
</g>
<!-- 2 -->
<g id="node5" class="node">
<title>2</title>
<path fill="lightcoral" stroke="black" d="M726.97,-928.25C726.97,-928.25 426.97,-928.25 426.97,-928.25 420.97,-928.25 414.97,-922.25 414.97,-916.25 414.97,-916.25 414.97,-796.25 414.97,-796.25 414.97,-790.25 420.97,-784.25 426.97,-784.25 426.97,-784.25 726.97,-784.25 726.97,-784.25 732.97,-784.25 738.97,-790.25 738.97,-796.25 738.97,-796.25 738.97,-916.25 738.97,-916.25 738.97,-922.25 732.97,-928.25 726.97,-928.25"/>
<text xml:space="preserve" text-anchor="start" x="568.72" y="-864.95" font-family="Courier,monospace" font-weight="bold" font-size="14.00">I2</text>
<text xml:space="preserve" text-anchor="start" x="531.59" y="-836.95" font-family="Courier,monospace" font-size="14.00">S&#39; → S •, $</text>
</g>
<!-- 0&#45;&gt;2 -->
<g id="edge3" class="edge">
<title>0&#45;&gt;2</title>
<path fill="none" stroke="black" d="M361.49,-759.66C375.82,-766.11 390.36,-772.66 404.77,-779.15"/>
<polygon fill="black" stroke="black" points="403.3,-782.32 413.85,-783.24 406.17,-775.94 403.3,-782.32"/>
<text xml:space="preserve" text-anchor="middle" x="388.34" y="-774.2" font-family="Arial Bold" font-size="14.00" fill="blue"> S </text>
</g>
<!-- 3 -->
<g id="node6" class="node">
<title>3</title>
<path fill="lightblue" stroke="black" d="M726.97,-653.25C726.97,-653.25 426.97,-653.25 426.97,-653.25 420.97,-653.25 414.97,-647.25 414.97,-641.25 414.97,-641.25 414.97,-521.25 414.97,-521.25 414.97,-515.25 420.97,-509.25 426.97,-509.25 426.97,-509.25 726.97,-509.25 726.97,-509.25 732.97,-509.25 738.97,-515.25 738.97,-521.25 738.97,-521.25 738.97,-641.25 738.97,-641.25 738.97,-647.25 732.97,-653.25 726.97,-653.25"/>
<text xml:space="preserve" text-anchor="start" x="568.72" y="-624.95" font-family="Courier,monospace" font-weight="bold" font-size="14.00">I3</text>
<text xml:space="preserve" text-anchor="start" x="527.47" y="-596.95" font-family="Courier,monospace" font-size="14.00">C → • c C, c</text>
<text xml:space="preserve" text-anchor="start" x="527.47" y="-582.95" font-family="Courier,monospace" font-size="14.00">C → • c C, d</text>
<text xml:space="preserve" text-anchor="start" x="527.47" y="-568.95" font-family="Courier,monospace" font-size="14.00">C → c • C, c</text>
<text xml:space="preserve" text-anchor="start" x="527.47" y="-554.95" font-family="Courier,monospace" font-size="14.00">C → c • C, d</text>
<text xml:space="preserve" text-anchor="start" x="535.72" y="-540.95" font-family="Courier,monospace" font-size="14.00">C → • d, c</text>
<text xml:space="preserve" text-anchor="start" x="535.72" y="-526.95" font-family="Courier,monospace" font-size="14.00">C → • d, d</text>
</g>
<!-- 0&#45;&gt;3 -->
<g id="edge4" class="edge">
<title>0&#45;&gt;3</title>
<path fill="none" stroke="black" d="M362.04,-641.68C375.75,-637.81 389.66,-633.88 403.46,-629.98"/>
<polygon fill="black" stroke="black" points="404.36,-633.36 413.03,-627.28 402.46,-626.63 404.36,-633.36"/>
<text xml:space="preserve" text-anchor="middle" x="388.34" y="-636.7" font-family="Arial Bold" font-size="14.00" fill="blue"> c </text>
</g>
<!-- 4 -->
<g id="node7" class="node">
<title>4</title>
<path fill="lightblue" stroke="black" d="M726.97,-455.25C726.97,-455.25 426.97,-455.25 426.97,-455.25 420.97,-455.25 414.97,-449.25 414.97,-443.25 414.97,-443.25 414.97,-323.25 414.97,-323.25 414.97,-317.25 420.97,-311.25 426.97,-311.25 426.97,-311.25 726.97,-311.25 726.97,-311.25 732.97,-311.25 738.97,-317.25 738.97,-323.25 738.97,-323.25 738.97,-443.25 738.97,-443.25 738.97,-449.25 732.97,-455.25 726.97,-455.25"/>
<text xml:space="preserve" text-anchor="start" x="568.72" y="-405.95" font-family="Courier,monospace" font-weight="bold" font-size="14.00">I4</text>
<text xml:space="preserve" text-anchor="start" x="527.47" y="-377.95" font-family="Courier,monospace" font-size="14.00">S → C • C, $</text>
<text xml:space="preserve" text-anchor="start" x="527.47" y="-363.95" font-family="Courier,monospace" font-size="14.00">C → • c C, $</text>
<text xml:space="preserve" text-anchor="start" x="535.72" y="-349.95" font-family="Courier,monospace" font-size="14.00">C → • d, $</text>
</g>
<!-- 0&#45;&gt;4 -->
<g id="edge2" class="edge">
<title>0&#45;&gt;4</title>
<path fill="none" stroke="black" d="M280.16,-614.92C319.92,-579.49 369.22,-536.72 414.97,-500.25 430.85,-487.59 447.91,-474.59 464.79,-462.05"/>
<polygon fill="black" stroke="black" points="466.42,-465.2 472.38,-456.44 462.26,-459.57 466.42,-465.2"/>
<text xml:space="preserve" text-anchor="middle" x="388.34" y="-527.08" font-family="Arial Bold" font-size="14.00" fill="blue"> C </text>
</g>
<!-- 2&#45;&gt;accept -->
<g id="edge15" class="edge">
<title>2&#45;&gt;accept</title>
<path fill="none" stroke="red" stroke-width="2" d="M739.29,-867.43C785.93,-870.66 834.79,-874.04 874.02,-876.76"/>
<polygon fill="red" stroke="red" stroke-width="2" points="872.11,-880.14 882.33,-877.34 872.59,-873.16 872.11,-880.14"/>
<text xml:space="preserve" text-anchor="middle" x="765.59" y="-872.8" font-family="Arial Bold" font-size="16.00" fill="red">$</text>
</g>
<!-- 3&#45;&gt;1 -->
<g id="edge8" class="edge">
<title>3&#45;&gt;1</title>
<path fill="none" stroke="black" d="M739.29,-642.29C753.14,-647.54 767.18,-652.85 781.12,-658.12"/>
<polygon fill="black" stroke="black" points="779.73,-661.34 790.33,-661.61 782.21,-654.8 779.73,-661.34"/>
<text xml:space="preserve" text-anchor="middle" x="765.59" y="-654.7" font-family="Arial Bold" font-size="14.00" fill="blue"> d </text>
</g>
<!-- 3&#45;&gt;3 -->
<g id="edge7" class="edge">
<title>3&#45;&gt;3</title>
<path fill="none" stroke="black" d="M545.06,-653.64C550.12,-664.16 560.76,-671.25 576.97,-671.25 587.86,-671.25 596.24,-668.05 602.1,-662.76"/>
<polygon fill="black" stroke="black" points="604.82,-664.96 607.98,-654.85 599.2,-660.78 604.82,-664.96"/>
<text xml:space="preserve" text-anchor="middle" x="576.97" y="-673.7" font-family="Arial Bold" font-size="14.00" fill="blue"> c </text>
</g>
<!-- 5 -->
<g id="node8" class="node">
<title>5</title>
<path fill="lightblue" stroke="black" d="M1104.22,-633.25C1104.22,-633.25 804.22,-633.25 804.22,-633.25 798.22,-633.25 792.22,-627.25 792.22,-621.25 792.22,-621.25 792.22,-501.25 792.22,-501.25 792.22,-495.25 798.22,-489.25 804.22,-489.25 804.22,-489.25 1104.22,-489.25 1104.22,-489.25 1110.22,-489.25 1116.22,-495.25 1116.22,-501.25 1116.22,-501.25 1116.22,-621.25 1116.22,-621.25 1116.22,-627.25 1110.22,-633.25 1104.22,-633.25"/>
<text xml:space="preserve" text-anchor="start" x="945.97" y="-576.95" font-family="Courier,monospace" font-weight="bold" font-size="14.00">I5</text>
<text xml:space="preserve" text-anchor="start" x="904.72" y="-548.95" font-family="Courier,monospace" font-size="14.00">C → c C •, c</text>
<text xml:space="preserve" text-anchor="start" x="904.72" y="-534.95" font-family="Courier,monospace" font-size="14.00">C → c C •, d</text>
</g>
<!-- 3&#45;&gt;5 -->
<g id="edge6" class="edge">
<title>3&#45;&gt;5</title>
<path fill="none" stroke="black" d="M739.29,-572.65C752.87,-571.93 766.63,-571.19 780.3,-570.47"/>
<polygon fill="black" stroke="black" points="780.43,-573.96 790.23,-569.94 780.06,-566.97 780.43,-573.96"/>
<text xml:space="preserve" text-anchor="middle" x="765.59" y="-573.7" font-family="Arial Bold" font-size="14.00" fill="blue"> C </text>
</g>
<!-- 6 -->
<g id="node9" class="node">
<title>6</title>
<path fill="lightblue" stroke="black" d="M1104.22,-419.25C1104.22,-419.25 804.22,-419.25 804.22,-419.25 798.22,-419.25 792.22,-413.25 792.22,-407.25 792.22,-407.25 792.22,-287.25 792.22,-287.25 792.22,-281.25 798.22,-275.25 804.22,-275.25 804.22,-275.25 1104.22,-275.25 1104.22,-275.25 1110.22,-275.25 1116.22,-281.25 1116.22,-287.25 1116.22,-287.25 1116.22,-407.25 1116.22,-407.25 1116.22,-413.25 1110.22,-419.25 1104.22,-419.25"/>
<text xml:space="preserve" text-anchor="start" x="945.97" y="-355.95" font-family="Courier,monospace" font-weight="bold" font-size="14.00">I6</text>
<text xml:space="preserve" text-anchor="start" x="904.72" y="-327.95" font-family="Courier,monospace" font-size="14.00">S → C C •, $</text>
</g>
<!-- 4&#45;&gt;6 -->
<g id="edge9" class="edge">
<title>4&#45;&gt;6</title>
<path fill="none" stroke="black" d="M739.29,-367.77C752.87,-366.47 766.63,-365.15 780.3,-363.84"/>
<polygon fill="black" stroke="black" points="780.61,-367.33 790.23,-362.89 779.95,-360.36 780.61,-367.33"/>
<text xml:space="preserve" text-anchor="middle" x="765.59" y="-367.7" font-family="Arial Bold" font-size="14.00" fill="blue"> C </text>
</g>
<!-- 7 -->
<g id="node10" class="node">
<title>7</title>
<path fill="lightblue" stroke="black" d="M1104.22,-223.25C1104.22,-223.25 804.22,-223.25 804.22,-223.25 798.22,-223.25 792.22,-217.25 792.22,-211.25 792.22,-211.25 792.22,-91.25 792.22,-91.25 792.22,-85.25 798.22,-79.25 804.22,-79.25 804.22,-79.25 1104.22,-79.25 1104.22,-79.25 1110.22,-79.25 1116.22,-85.25 1116.22,-91.25 1116.22,-91.25 1116.22,-211.25 1116.22,-211.25 1116.22,-217.25 1110.22,-223.25 1104.22,-223.25"/>
<text xml:space="preserve" text-anchor="start" x="945.97" y="-173.95" font-family="Courier,monospace" font-weight="bold" font-size="14.00">I7</text>
<text xml:space="preserve" text-anchor="start" x="904.72" y="-145.95" font-family="Courier,monospace" font-size="14.00">C → • c C, $</text>
<text xml:space="preserve" text-anchor="start" x="904.72" y="-131.95" font-family="Courier,monospace" font-size="14.00">C → c • C, $</text>
<text xml:space="preserve" text-anchor="start" x="912.97" y="-117.95" font-family="Courier,monospace" font-size="14.00">C → • d, $</text>
</g>
<!-- 4&#45;&gt;7 -->
<g id="edge10" class="edge">
<title>4&#45;&gt;7</title>
<path fill="none" stroke="black" d="M695.16,-310.8C736.94,-284.96 784.18,-255.76 826.71,-229.46"/>
<polygon fill="black" stroke="black" points="828.32,-232.58 834.99,-224.35 824.64,-226.63 828.32,-232.58"/>
<text xml:space="preserve" text-anchor="middle" x="765.59" y="-269.7" font-family="Arial Bold" font-size="14.00" fill="blue"> c </text>
</g>
<!-- 8 -->
<g id="node11" class="node">
<title>8</title>
<path fill="lightblue" stroke="black" d="M1481.47,-456.25C1481.47,-456.25 1181.47,-456.25 1181.47,-456.25 1175.47,-456.25 1169.47,-450.25 1169.47,-444.25 1169.47,-444.25 1169.47,-324.25 1169.47,-324.25 1169.47,-318.25 1175.47,-312.25 1181.47,-312.25 1181.47,-312.25 1481.47,-312.25 1481.47,-312.25 1487.47,-312.25 1493.47,-318.25 1493.47,-324.25 1493.47,-324.25 1493.47,-444.25 1493.47,-444.25 1493.47,-450.25 1487.47,-456.25 1481.47,-456.25"/>
<text xml:space="preserve" text-anchor="start" x="1323.22" y="-392.95" font-family="Courier,monospace" font-weight="bold" font-size="14.00">I8</text>
<text xml:space="preserve" text-anchor="start" x="1290.22" y="-364.95" font-family="Courier,monospace" font-size="14.00">C → d •, $</text>
</g>
<!-- 4&#45;&gt;8 -->
<g id="edge11" class="edge">
<title>4&#45;&gt;8</title>
<path fill="none" stroke="black" d="M739.43,-420.87C757.16,-423.89 775.02,-426.46 792.22,-428.25 935.45,-443.13 972.96,-442.81 1116.22,-428.25 1129.78,-426.87 1143.76,-425.01 1157.76,-422.84"/>
<polygon fill="black" stroke="black" points="1158.17,-426.32 1167.49,-421.27 1157.06,-419.41 1158.17,-426.32"/>
<text xml:space="preserve" text-anchor="middle" x="954.22" y="-441.74" font-family="Arial Bold" font-size="14.00" fill="blue"> d </text>
</g>
<!-- 7&#45;&gt;7 -->
<g id="edge13" class="edge">
<title>7&#45;&gt;7</title>
<path fill="none" stroke="black" d="M922.31,-223.64C927.37,-234.16 938.01,-241.25 954.22,-241.25 965.11,-241.25 973.49,-238.05 979.35,-232.76"/>
<polygon fill="black" stroke="black" points="982.07,-234.96 985.23,-224.85 976.45,-230.78 982.07,-234.96"/>
<text xml:space="preserve" text-anchor="middle" x="954.22" y="-243.7" font-family="Arial Bold" font-size="14.00" fill="blue"> c </text>
</g>
<!-- 7&#45;&gt;8 -->
<g id="edge14" class="edge">
<title>7&#45;&gt;8</title>
<path fill="none" stroke="black" d="M1071.89,-223.7C1113.9,-249.78 1161.47,-279.31 1204.25,-305.88"/>
<polygon fill="black" stroke="black" points="1202.24,-308.75 1212.58,-311.05 1205.93,-302.8 1202.24,-308.75"/>
<text xml:space="preserve" text-anchor="middle" x="1142.84" y="-270.2" font-family="Arial Bold" font-size="14.00" fill="blue"> d </text>
</g>
<!-- 9 -->
<g id="node12" class="node">
<title>9</title>
<path fill="lightblue" stroke="black" d="M1481.47,-223.25C1481.47,-223.25 1181.47,-223.25 1181.47,-223.25 1175.47,-223.25 1169.47,-217.25 1169.47,-211.25 1169.47,-211.25 1169.47,-91.25 1169.47,-91.25 1169.47,-85.25 1175.47,-79.25 1181.47,-79.25 1181.47,-79.25 1481.47,-79.25 1481.47,-79.25 1487.47,-79.25 1493.47,-85.25 1493.47,-91.25 1493.47,-91.25 1493.47,-211.25 1493.47,-211.25 1493.47,-217.25 1487.47,-223.25 1481.47,-223.25"/>
<text xml:space="preserve" text-anchor="start" x="1323.22" y="-159.95" font-family="Courier,monospace" font-weight="bold" font-size="14.00">I9</text>
<text xml:space="preserve" text-anchor="start" x="1281.97" y="-131.95" font-family="Courier,monospace" font-size="14.00">C → c C •, $</text>
</g>
<!-- 7&#45;&gt;9 -->
<g id="edge12" class="edge">
<title>7&#45;&gt;9</title>
<path fill="none" stroke="black" d="M1116.54,-151.25C1130.12,-151.25 1143.88,-151.25 1157.55,-151.25"/>
<polygon fill="black" stroke="black" points="1157.48,-154.75 1167.48,-151.25 1157.48,-147.75 1157.48,-154.75"/>
<text xml:space="preserve" text-anchor="middle" x="1142.84" y="-153.7" font-family="Arial Bold" font-size="14.00" fill="blue"> C </text>
</g>
</g>
</svg>
